<?xml version="1.0" standalone="no"?><!DOCTYPE svg PUBLIC "-//W3C//DTD SVG 1.1//EN" "http://www.w3.org/Graphics/SVG/1.1/DTD/svg11.dtd"><svg t="1679413700143" class="icon" viewBox="0 0 1024 1024" version="1.1" xmlns="http://www.w3.org/2000/svg" p-id="7934" xmlns:xlink="http://www.w3.org/1999/xlink" width="200" height="200"><path d="M416 544c35.3456 0 64 28.6544 64 64v256c0 35.3456-28.6544 64-64 64H160c-35.3456 0-64-28.6544-64-64V608c0-35.3456 28.6544-64 64-64h256z m320 0c106.0384 0 192 85.9616 192 192s-85.9616 192-192 192-192-85.9616-192-192 85.9616-192 192-192z m-320 48H160c-8.8368 0-16 7.1632-16 16v256c0 8.8368 7.1632 16 16 16h256c8.8368 0 16-7.1632 16-16V608c0-8.8368-7.1632-16-16-16z m320 0c-79.5296 0-144 64.4704-144 144s64.4704 144 144 144 144-64.4704 144-144-64.4704-144-144-144zM416 96c35.3456 0 64 28.6544 64 64v256c0 35.3456-28.6544 64-64 64H160c-35.3456 0-64-28.6544-64-64V160c0-35.3456 28.6544-64 64-64h256z m448 0c35.3456 0 64 28.6544 64 64v256c0 35.3456-28.6544 64-64 64H608c-35.3456 0-64-28.6544-64-64V160c0-35.3456 28.6544-64 64-64h256zM416 144H160c-8.8368 0-16 7.1632-16 16v256c0 8.8368 7.1632 16 16 16h256c8.8368 0 16-7.1632 16-16V160c0-8.8368-7.1632-16-16-16z m448 0H608c-8.8368 0-16 7.1632-16 16v256c0 8.8368 7.1632 16 16 16h256c8.8368 0 16-7.1632 16-16V160c0-8.8368-7.1632-16-16-16z" fill="#979797" p-id="7935"></path></svg>